<svg width="119" height="58" version="1.1" xmlns="http://www.w3.org/2000/svg" desc="Created with imagetracer.js version 1.2.6" ><path fill="rgb(0,0,0)" stroke="rgb(0,0,0)" stroke-width="1" opacity="0" d="M 0 0 L 8 0.5 L 3 3.5 L 1 9.5 L 1 15.5 L 2 19.5 L 5.5 23 L 11.5 25 L 32.5 26 L 33.5 25 L 49.5 25 L 55 21.5 Q 56.5 15.5 53.5 14 L 49.5 12 L 35.5 12 L 34.5 13 L 23.5 14 L 24 12.5 L 24.5 9 L 50.5 9 L 53 8 L 54 3.5 L 50 0.5 L 68.5 0 L 68.5 1 Q 64.5 0.5 64 3.5 Q 60.9 7.9 62 16.5 L 64 22 L 72.5 25 L 93.5 26 L 94.5 25 L 110.5 25 L 116 21.5 Q 116.6 16.1 115 14 L 110.5 12 L 96.5 12 L 95.5 13 L 84.5 14 L 85 12.5 L 85.5 9 L 111.5 9 L 114 8 L 115 3.5 L 111 0.5 L 119 0 L 118.5 30 L 116.5 27 L 107.5 26 L 106.5 27 L 71.5 27 Q 70 24.5 64.5 26 L 61 28.5 L 60 31.5 L 62.5 35 L 75 36.5 Q 65.6 36.1 63 42.5 L 62 49.5 L 65.5 55 L 70.5 57 L 82 57.5 L 36.5 58 L 36.5 57 Q 51.2 59.2 56 51.5 Q 57.3 44.3 53.5 42 Q 50.2 38.8 42.5 40 Q 29.8 42.3 22.5 50 L 22 48.5 Q 24.5 47 23 41.5 L 17 37.5 L 53.5 36 L 58 32.5 Q 58.8 27.8 55.5 27 L 46.5 26 L 45.5 27 L 10.5 27 Q 9 24.5 3.5 26 L 0.5 28 L 0 0 Z " /><path fill="rgb(0,0,0)" stroke="rgb(0,0,0)" stroke-width="1" opacity="0" d="M 118.5 32 L 119 58 L 97 57.5 L 108.5 57 L 116 52.5 L 117 45.5 L 114.5 42 Q 110.9 39.1 103.5 40 Q 91.4 42.4 83.5 49 L 84 47.5 Q 85 41 81.5 39 L 78 37.5 L 114.5 36 L 118 33.5 L 118.5 32 Z " /><path fill="rgb(0,0,0)" stroke="rgb(0,0,0)" stroke-width="1" opacity="0" d="M 0.5 34 L 3.5 36 L 14 36.5 Q 5.8 36.3 3 41.5 L 1 48.5 L 4.5 55 L 9.5 57 L 21 57.5 L 0 58 L 0.5 34 Z " /><path fill="rgb(251,126,42)" stroke="rgb(251,126,42)" stroke-width="1" opacity="0.6431372549019608" d="M 10.5 0 L 13 0.5 L 10.5 1 L 10.5 0 Z " /><path fill="rgb(251,126,42)" stroke="rgb(251,126,42)" stroke-width="1" opacity="0.6431372549019608" d="M 113.5 6 L 112.5 8 L 113.5 6 Z " /><path fill="rgb(251,126,42)" stroke="rgb(251,126,42)" stroke-width="1" opacity="0.6431372549019608" d="M 84.5 10 L 85 12.5 L 84 12.5 L 84.5 10 Z " /><path fill="rgb(251,126,42)" stroke="rgb(251,126,42)" stroke-width="1" opacity="0.6431372549019608" d="M 39.5 12 L 48 12.5 L 39.5 13 L 39.5 12 Z " /><path fill="rgb(251,126,42)" stroke="rgb(251,126,42)" stroke-width="1" opacity="0.6431372549019608" d="M 100.5 12 L 109 12.5 L 100.5 13 L 100.5 12 Z " /><path fill="rgb(251,126,42)" stroke="rgb(251,126,42)" stroke-width="1" opacity="0.6431372549019608" d="M 80.5 13 L 79.5 15 L 80.5 13 Z " /><path fill="rgb(251,126,42)" stroke="rgb(251,126,42)" stroke-width="1" opacity="0.6431372549019608" d="M 90.5 13 L 93 13.5 L 90.5 14 L 90.5 13 Z " /><path fill="rgb(251,126,42)" stroke="rgb(251,126,42)" stroke-width="1" opacity="0.6431372549019608" d="M 3.5 20 L 4.5 22 L 3.5 20 Z " /><path fill="rgb(251,126,42)" stroke="rgb(251,126,42)" stroke-width="1" opacity="0.6431372549019608" d="M 14.5 24 L 17 24.5 L 14.5 25 L 14.5 24 Z " /><path fill="rgb(251,126,42)" stroke="rgb(251,126,42)" stroke-width="1" opacity="0.6431372549019608" d="M 42.5 24 L 46 24.5 L 42.5 25 L 42.5 24 Z " /><path fill="rgb(251,126,42)" stroke="rgb(251,126,42)" stroke-width="1" opacity="0.6431372549019608" d="M 74.5 24 L 78 24.5 L 74.5 25 L 74.5 24 Z " /><path fill="rgb(251,126,42)" stroke="rgb(251,126,42)" stroke-width="1" opacity="0.6431372549019608" d="M 103.5 24 L 107 24.5 L 103.5 25 L 103.5 24 Z " /><path fill="rgb(251,126,42)" stroke="rgb(251,126,42)" stroke-width="1" opacity="0.6431372549019608" d="M 19.5 27 L 36 27.5 L 19.5 28 L 19.5 27 Z " /><path fill="rgb(251,126,42)" stroke="rgb(251,126,42)" stroke-width="1" opacity="0.6431372549019608" d="M 80.5 27 L 97 27.5 L 80.5 28 L 80.5 27 Z " /><path fill="rgb(251,126,42)" stroke="rgb(251,126,42)" stroke-width="1" opacity="0.6431372549019608" d="M 56.5 33 L 55.5 35 L 56.5 33 Z " /><path fill="rgb(251,126,42)" stroke="rgb(251,126,42)" stroke-width="1" opacity="0.6431372549019608" d="M 49.5 35 L 53 35.5 L 49.5 36 L 49.5 35 Z " /><path fill="rgb(251,126,42)" stroke="rgb(251,126,42)" stroke-width="1" opacity="0.6431372549019608" d="M 65.5 35 L 68 35.5 L 65.5 36 L 65.5 35 Z " /><path fill="rgb(251,126,42)" stroke="rgb(251,126,42)" stroke-width="1" opacity="0.6431372549019608" d="M 110.5 35 L 114 35.5 L 110.5 36 L 110.5 35 Z " /><path fill="rgb(251,126,42)" stroke="rgb(251,126,42)" stroke-width="1" opacity="0.6431372549019608" d="M 10.5 37 L 16 37.5 L 10.5 38 L 10.5 37 Z " /><path fill="rgb(251,126,42)" stroke="rgb(251,126,42)" stroke-width="1" opacity="0.6431372549019608" d="M 71.5 37 L 77 37.5 L 71.5 38 L 71.5 37 Z " /><path fill="rgb(251,126,42)" stroke="rgb(251,126,42)" stroke-width="1" opacity="0.6431372549019608" d="M 116.5 47 L 117 49.5 L 116 49.5 L 116.5 47 Z " /><path fill="rgb(251,126,42)" stroke="rgb(251,126,42)" stroke-width="1" opacity="0.6431372549019608" d="M 54.5 52 L 53.5 54 L 54.5 52 Z " /><path fill="rgb(251,126,42)" stroke="rgb(251,126,42)" stroke-width="1" opacity="0.6431372549019608" d="M 42.5 56 L 45 56.5 L 42.5 57 L 42.5 56 Z " /><path fill="rgb(251,126,42)" stroke="rgb(251,126,42)" stroke-width="1" opacity="0.6431372549019608" d="M 103.5 56 L 106 56.5 L 103.5 57 L 103.5 56 Z " /><path fill="rgb(252,127,42)" stroke="rgb(252,127,42)" stroke-width="1" opacity="0.22745098039215686" d="M 66.5 1 L 64.5 4 L 66.5 1 Z " /><path fill="rgb(252,127,42)" stroke="rgb(252,127,42)" stroke-width="1" opacity="0.22745098039215686" d="M 4.5 2 L 3.5 4 L 4.5 2 Z " /><path fill="rgb(252,127,42)" stroke="rgb(252,127,42)" stroke-width="1" opacity="0.22745098039215686" d="M 114.5 3 L 115 5.5 L 114 5.5 L 114.5 3 Z " /><path fill="rgb(252,127,42)" stroke="rgb(252,127,42)" stroke-width="1" opacity="0.22745098039215686" d="M 62.5 8 L 63 16.5 L 62 16.5 L 62.5 8 Z " /><path fill="rgb(252,127,42)" stroke="rgb(252,127,42)" stroke-width="1" opacity="0.22745098039215686" d="M 1.5 9 L 2 15.5 L 1 15.5 L 1.5 9 Z " /><path fill="rgb(252,127,42)" stroke="rgb(252,127,42)" stroke-width="1" opacity="0.22745098039215686" d="M 35.5 12 L 39 12.5 L 35.5 13 L 35.5 12 Z " /><path fill="rgb(252,127,42)" stroke="rgb(252,127,42)" stroke-width="1" opacity="0.22745098039215686" d="M 96.5 12 L 100 12.5 L 96.5 13 L 96.5 12 Z " /><path fill="rgb(252,127,42)" stroke="rgb(252,127,42)" stroke-width="1" opacity="0.22745098039215686" d="M 21 13 Q 24 12 23 15 Q 20 16 21 13 Z " /><path fill="rgb(252,127,42)" stroke="rgb(252,127,42)" stroke-width="1" opacity="0.22745098039215686" d="M 27.5 13 L 30 13.5 L 27.5 14 L 27.5 13 Z " /><path fill="rgb(252,127,42)" stroke="rgb(252,127,42)" stroke-width="1" opacity="0.22745098039215686" d="M 81.5 13 Q 85.3 12 84 15 L 81.5 13 Z " /><path fill="rgb(252,127,42)" stroke="rgb(252,127,42)" stroke-width="1" opacity="0.22745098039215686" d="M 53.5 14 L 54.5 16 L 53.5 14 Z " /><path fill="rgb(252,127,42)" stroke="rgb(252,127,42)" stroke-width="1" opacity="0.22745098039215686" d="M 115.5 20 L 116 21.5 L 114 22.5 L 115.5 20 Z " /><path fill="rgb(252,127,42)" stroke="rgb(252,127,42)" stroke-width="1" opacity="0.22745098039215686" d="M 54.5 21 L 52.5 24 L 54.5 21 Z " /><path fill="rgb(252,127,42)" stroke="rgb(252,127,42)" stroke-width="1" opacity="0.22745098039215686" d="M 11.5 24 L 14 24.5 L 11.5 25 L 11.5 24 Z " /><path fill="rgb(252,127,42)" stroke="rgb(252,127,42)" stroke-width="1" opacity="0.22745098039215686" d="M 46.5 24 L 50 24.5 L 46.5 25 L 46.5 24 Z " /><path fill="rgb(252,127,42)" stroke="rgb(252,127,42)" stroke-width="1" opacity="0.22745098039215686" d="M 107.5 24 L 111 24.5 L 107.5 25 L 107.5 24 Z " /><path fill="rgb(252,127,42)" stroke="rgb(252,127,42)" stroke-width="1" opacity="0.22745098039215686" d="M 27.5 25 L 33 25.5 L 27.5 26 L 27.5 25 Z " /><path fill="rgb(252,127,42)" stroke="rgb(252,127,42)" stroke-width="1" opacity="0.22745098039215686" d="M 88.5 25 L 94 25.5 L 88.5 26 L 88.5 25 Z " /><path fill="rgb(252,127,42)" stroke="rgb(252,127,42)" stroke-width="1" opacity="0.22745098039215686" d="M 3.5 26 L 10 26.5 L 3.5 27 L 3.5 26 Z " /><path fill="rgb(252,127,42)" stroke="rgb(252,127,42)" stroke-width="1" opacity="0.22745098039215686" d="M 46.5 26 L 54 26.5 L 46.5 27 L 46.5 26 Z " /><path fill="rgb(252,127,42)" stroke="rgb(252,127,42)" stroke-width="1" opacity="0.22745098039215686" d="M 64.5 26 L 71 26.5 L 64.5 27 L 64.5 26 Z " /><path fill="rgb(252,127,42)" stroke="rgb(252,127,42)" stroke-width="1" opacity="0.22745098039215686" d="M 107.5 26 L 115 26.5 L 107.5 27 L 107.5 26 Z " /><path fill="rgb(252,127,42)" stroke="rgb(252,127,42)" stroke-width="1" opacity="0.22745098039215686" d="M 1.5 27 L 0.5 29 L 1.5 27 Z " /><path fill="rgb(252,127,42)" stroke="rgb(252,127,42)" stroke-width="1" opacity="0.22745098039215686" d="M 62.5 27 L 61.5 29 L 62.5 27 Z " /><path fill="rgb(252,127,42)" stroke="rgb(252,127,42)" stroke-width="1" opacity="0.22745098039215686" d="M 116.5 27 L 117.5 29 L 116.5 27 Z " /><path fill="rgb(252,127,42)" stroke="rgb(252,127,42)" stroke-width="1" opacity="0.22745098039215686" d="M 57.5 29 L 58 32.5 L 57 32.5 L 57.5 29 Z " /><path fill="rgb(252,127,42)" stroke="rgb(252,127,42)" stroke-width="1" opacity="0.22745098039215686" d="M 0.5 33 L 1.5 35 L 0.5 33 Z " /><path fill="rgb(252,127,42)" stroke="rgb(252,127,42)" stroke-width="1" opacity="0.22745098039215686" d="M 117.5 33 L 116.5 35 L 117.5 33 Z " /><path fill="rgb(252,127,42)" stroke="rgb(252,127,42)" stroke-width="1" opacity="0.22745098039215686" d="M 14.5 36 L 43 36.5 L 17.5 37 L 16.5 38 L 14.5 36 Z " /><path fill="rgb(252,127,42)" stroke="rgb(252,127,42)" stroke-width="1" opacity="0.22745098039215686" d="M 75.5 36 L 104 36.5 L 78.5 37 L 77.5 38 L 75.5 36 Z " /><path fill="rgb(252,127,42)" stroke="rgb(252,127,42)" stroke-width="1" opacity="0.22745098039215686" d="M 6.5 38 L 3.5 42 L 6.5 38 Z " /><path fill="rgb(252,127,42)" stroke="rgb(252,127,42)" stroke-width="1" opacity="0.22745098039215686" d="M 67.5 38 L 66.5 40 L 67.5 38 Z " /><path fill="rgb(252,127,42)" stroke="rgb(252,127,42)" stroke-width="1" opacity="0.22745098039215686" d="M 20.5 39 L 22.5 42 L 20.5 39 Z " /><path fill="rgb(252,127,42)" stroke="rgb(252,127,42)" stroke-width="1" opacity="0.22745098039215686" d="M 81.5 39 L 82.5 41 L 81.5 39 Z " /><path fill="rgb(252,127,42)" stroke="rgb(252,127,42)" stroke-width="1" opacity="0.22745098039215686" d="M 42.5 40 L 50 40.5 L 42.5 41 L 42.5 40 Z " /><path fill="rgb(252,127,42)" stroke="rgb(252,127,42)" stroke-width="1" opacity="0.22745098039215686" d="M 103.5 40 L 110 40.5 L 103.5 41 L 103.5 40 Z " /><path fill="rgb(252,127,42)" stroke="rgb(252,127,42)" stroke-width="1" opacity="0.22745098039215686" d="M 64.5 41 L 64 42.5 L 63.5 44 L 63 42.5 L 64.5 41 Z " /><path fill="rgb(252,127,42)" stroke="rgb(252,127,42)" stroke-width="1" opacity="0.22745098039215686" d="M 53.5 42 L 54.5 44 L 53.5 42 Z " /><path fill="rgb(252,127,42)" stroke="rgb(252,127,42)" stroke-width="1" opacity="0.22745098039215686" d="M 114.5 42 L 115.5 44 L 114.5 42 Z " /><path fill="rgb(252,127,42)" stroke="rgb(252,127,42)" stroke-width="1" opacity="0.22745098039215686" d="M 30.5 44 L 29.5 46 L 30.5 44 Z " /><path fill="rgb(252,127,42)" stroke="rgb(252,127,42)" stroke-width="1" opacity="0.22745098039215686" d="M 62.5 45 L 63 49.5 L 62 49.5 L 62.5 45 Z " /><path fill="rgb(252,127,42)" stroke="rgb(252,127,42)" stroke-width="1" opacity="0.22745098039215686" d="M 89.5 45 L 88.5 47 L 89.5 45 Z " /><path fill="rgb(252,127,42)" stroke="rgb(252,127,42)" stroke-width="1" opacity="0.22745098039215686" d="M 25.5 47 L 24.5 49 L 25.5 47 Z " /><path fill="rgb(252,127,42)" stroke="rgb(252,127,42)" stroke-width="1" opacity="0.22745098039215686" d="M 86.5 47 L 85.5 49 L 86.5 47 Z " /><path fill="rgb(252,127,42)" stroke="rgb(252,127,42)" stroke-width="1" opacity="0.22745098039215686" d="M 21.5 49 L 22 51 L 20 50.5 L 21.5 49 Z " /><path fill="rgb(252,127,42)" stroke="rgb(252,127,42)" stroke-width="1" opacity="0.22745098039215686" d="M 82 49 L 84 49.5 L 82 50.5 L 82 49 Z " /><path fill="rgb(252,127,42)" stroke="rgb(252,127,42)" stroke-width="1" opacity="0.22745098039215686" d="M 63.5 52 L 65.5 55 L 63.5 52 Z " /><path fill="rgb(252,127,42)" stroke="rgb(252,127,42)" stroke-width="1" opacity="0.22745098039215686" d="M 3.5 53 L 4.5 55 L 3.5 53 Z " /><path fill="rgb(252,127,42)" stroke="rgb(252,127,42)" stroke-width="1" opacity="0.22745098039215686" d="M 45.5 56 L 48 56.5 L 45.5 57 L 45.5 56 Z " /><path fill="rgb(252,127,42)" stroke="rgb(252,127,42)" stroke-width="1" opacity="0.22745098039215686" d="M 106.5 56 L 109 56.5 L 106.5 57 L 106.5 56 Z " /><path fill="rgb(252,127,42)" stroke="rgb(252,127,42)" stroke-width="1" opacity="0.22745098039215686" d="M 21.5 57 L 36 57.5 L 21.5 58 L 21.5 57 Z " /><path fill="rgb(252,127,42)" stroke="rgb(252,127,42)" stroke-width="1" opacity="0.22745098039215686" d="M 82.5 57 L 97 57.5 L 82.5 58 L 82.5 57 Z " /><path fill="rgb(252,126,42)" stroke="rgb(252,126,42)" stroke-width="1" opacity="1" d="M 29.5 0 L 49.5 1 L 53 3.5 Q 53.5 7.5 50.5 8 L 45.5 9 L 23 9 Q 25.2 14.6 19.5 13 Q 16.5 14.5 19.5 16 L 35.5 13 L 49.5 13 L 54 16.5 Q 55 22 51.5 23 L 49.5 24 L 37.5 24 L 36.5 25 L 22.5 25 L 21.5 24 L 7.5 23 L 3 19.5 L 2 9.5 L 3 5.5 L 6.5 2 L 8.5 1 L 28.5 1 L 29.5 0 Z " /><path fill="rgb(252,126,42)" stroke="rgb(252,126,42)" stroke-width="1" opacity="1" d="M 90.5 0 L 110.5 1 L 114 3.5 Q 114.5 7.5 111.5 8 L 106.5 9 L 84 9 L 84 13 L 79 13 L 79 14.5 Q 80.3 17.3 81.5 15 L 94.5 14 L 95.5 13 L 110.5 13 L 115 16.5 Q 116 22 112.5 23 L 110.5 24 L 98.5 24 L 97.5 25 L 83.5 25 L 82.5 24 L 71.5 24 L 64 19.5 L 63 8.5 L 67.5 2 L 69.5 1 L 89.5 1 L 90.5 0 Z " /><path fill="rgb(252,126,42)" stroke="rgb(252,126,42)" stroke-width="1" opacity="1" d="M 3.5 27 L 11.5 27 L 12.5 28 L 43.5 28 L 44.5 27 L 53.5 27 L 57 29.5 Q 57.8 33.3 55.5 34 L 44.5 36 L 12.5 36 L 1 34 L 0 30.5 L 3.5 27 Z " /><path fill="rgb(252,126,42)" stroke="rgb(252,126,42)" stroke-width="1" opacity="1" d="M 64.5 27 L 72.5 27 L 73.5 28 L 104.5 28 L 105.5 27 L 114.5 27 L 117 28 L 118 31.5 L 117 34 L 105.5 36 L 73.5 36 L 62 34 L 61 30.5 L 62 28 L 64.5 27 Z " /><path fill="rgb(252,126,42)" stroke="rgb(252,126,42)" stroke-width="1" opacity="1" d="M 9.5 38 Q 19.6 36.4 22 42.5 L 22 47.5 Q 19.3 48.6 20 52 L 35.5 43 L 42.5 41 L 49.5 41 L 55 45.5 Q 56.5 52.5 52.5 54 L 47.5 56 L 38.5 56 L 37.5 57 L 17.5 57 L 6.5 55 L 3 51.5 L 2 46.5 L 5 40 L 9.5 38 Z " /><path fill="rgb(252,126,42)" stroke="rgb(252,126,42)" stroke-width="1" opacity="1" d="M 70.5 38 Q 80.6 36.4 83 42.5 Q 84.3 49.3 80 50.5 Q 81.3 53.3 82.5 51 L 96.5 43 L 103.5 41 L 110.5 41 L 116 45.5 Q 117 52 113.5 54 L 108.5 56 L 99.5 56 L 98.5 57 L 78.5 57 L 77.5 56 L 69.5 56 L 64 51.5 L 63 45.5 L 66.5 40 L 70.5 38 Z " /><path fill="rgb(253,126,42)" stroke="rgb(253,126,42)" stroke-width="1" opacity="0.8117647058823529" d="M 13.5 0 L 17 0.5 L 13.5 1 L 13.5 0 Z " /><path fill="rgb(253,126,42)" stroke="rgb(253,126,42)" stroke-width="1" opacity="0.8117647058823529" d="M 73.5 0 L 77 0.5 L 73.5 1 L 73.5 0 Z " /><path fill="rgb(253,126,42)" stroke="rgb(253,126,42)" stroke-width="1" opacity="0.8117647058823529" d="M 105.5 0 L 108 0.5 L 105.5 1 L 105.5 0 Z " /><path fill="rgb(253,126,42)" stroke="rgb(253,126,42)" stroke-width="1" opacity="0.8117647058823529" d="M 19.5 13 L 19.5 16 Q 16.5 14.5 19.5 13 Z " /><path fill="rgb(253,126,42)" stroke="rgb(253,126,42)" stroke-width="1" opacity="0.8117647058823529" d="M 113.5 14 L 114.5 16 L 113.5 14 Z " /><path fill="rgb(253,126,42)" stroke="rgb(253,126,42)" stroke-width="1" opacity="0.8117647058823529" d="M 17.5 24 L 20 24.5 L 17.5 25 L 17.5 24 Z " /><path fill="rgb(253,126,42)" stroke="rgb(253,126,42)" stroke-width="1" opacity="0.8117647058823529" d="M 14.5 27 L 19 27.5 L 14.5 28 L 14.5 27 Z " /><path fill="rgb(253,126,42)" stroke="rgb(253,126,42)" stroke-width="1" opacity="0.8117647058823529" d="M 36.5 27 L 41 27.5 L 36.5 28 L 36.5 27 Z " /><path fill="rgb(253,126,42)" stroke="rgb(253,126,42)" stroke-width="1" opacity="0.8117647058823529" d="M 75.5 27 L 80 27.5 L 75.5 28 L 75.5 27 Z " /><path fill="rgb(253,126,42)" stroke="rgb(253,126,42)" stroke-width="1" opacity="0.8117647058823529" d="M 97.5 27 L 101 27.5 L 97.5 28 L 97.5 27 Z " /><path fill="rgb(253,126,42)" stroke="rgb(253,126,42)" stroke-width="1" opacity="0.8117647058823529" d="M 7.5 35 L 10 35.5 L 7.5 36 L 7.5 35 Z " /><path fill="rgb(253,126,42)" stroke="rgb(253,126,42)" stroke-width="1" opacity="0.8117647058823529" d="M 68.5 35 L 71 35.5 L 68.5 36 L 68.5 35 Z " /><path fill="rgb(253,126,42)" stroke="rgb(253,126,42)" stroke-width="1" opacity="0.8117647058823529" d="M 12.5 56 L 15 56.5 L 12.5 57 L 12.5 56 Z " /><path fill="rgb(252,126,42)" stroke="rgb(252,126,42)" stroke-width="1" opacity="0.8745098039215686" d="M 17.5 0 L 29 0.5 L 17.5 1 L 17.5 0 Z " /><path fill="rgb(252,126,42)" stroke="rgb(252,126,42)" stroke-width="1" opacity="0.8745098039215686" d="M 36.5 0 L 45 0.5 L 36.5 1 L 36.5 0 Z " /><path fill="rgb(252,126,42)" stroke="rgb(252,126,42)" stroke-width="1" opacity="0.8745098039215686" d="M 77.5 0 L 90 0.5 L 77.5 1 L 77.5 0 Z " /><path fill="rgb(252,126,42)" stroke="rgb(252,126,42)" stroke-width="1" opacity="0.8745098039215686" d="M 97.5 0 L 105 0.5 L 97.5 1 L 97.5 0 Z " /><path fill="rgb(252,126,42)" stroke="rgb(252,126,42)" stroke-width="1" opacity="0.8745098039215686" d="M 52.5 14 L 53.5 16 L 52.5 14 Z " /><path fill="rgb(252,126,42)" stroke="rgb(252,126,42)" stroke-width="1" opacity="0.8745098039215686" d="M 37.5 24 L 40 24.5 L 37.5 25 L 37.5 24 Z " /><path fill="rgb(252,126,42)" stroke="rgb(252,126,42)" stroke-width="1" opacity="0.8745098039215686" d="M 80.5 24 L 83 24.5 L 80.5 25 L 80.5 24 Z " /><path fill="rgb(252,126,42)" stroke="rgb(252,126,42)" stroke-width="1" opacity="0.8745098039215686" d="M 98.5 24 L 101 24.5 L 98.5 25 L 98.5 24 Z " /><path fill="rgb(252,126,42)" stroke="rgb(252,126,42)" stroke-width="1" opacity="0.8745098039215686" d="M 41.5 27 L 44 27.5 L 41.5 28 L 41.5 27 Z " /><path fill="rgb(252,126,42)" stroke="rgb(252,126,42)" stroke-width="1" opacity="0.8745098039215686" d="M 101.5 27 L 105 27.5 L 101.5 28 L 101.5 27 Z " /><path fill="rgb(252,126,42)" stroke="rgb(252,126,42)" stroke-width="1" opacity="0.8745098039215686" d="M 113.5 42 L 114.5 44 L 113.5 42 Z " /><path fill="rgb(252,126,42)" stroke="rgb(252,126,42)" stroke-width="1" opacity="0.8745098039215686" d="M 21.5 48 L 20.5 50 L 21.5 48 Z " /><path fill="rgb(252,126,42)" stroke="rgb(252,126,42)" stroke-width="1" opacity="0.8745098039215686" d="M 64.5 52 L 65.5 54 L 64.5 52 Z " /></svg>