<svg width="40" height="40" viewBox="0 0 40 40" fill="none" xmlns="http://www.w3.org/2000/svg">
<path fill-rule="evenodd" clip-rule="evenodd" d="M16.2966 35H23.7033C28.9049 35 31.5066 35 33.3749 33.775C34.1813 33.2469 34.8756 32.565 35.4183 31.7683C36.6666 29.935 36.6666 27.38 36.6666 22.2733C36.6666 17.1667 36.6666 14.6117 35.4183 12.7783C34.8756 11.9817 34.1813 11.2998 33.3749 10.7717C32.1749 9.98333 30.6716 9.70167 28.3699 9.60167C27.2716 9.60167 26.3266 8.785 26.1116 7.72667C25.9473 6.95145 25.5204 6.25673 24.903 5.75992C24.2856 5.26311 23.5157 4.99468 22.7233 5H17.2766C15.6299 5 14.2116 6.14167 13.8883 7.72667C13.6733 8.785 12.7283 9.60167 11.6299 9.60167C9.32992 9.70167 7.82659 9.985 6.62492 10.7717C5.81915 11.2999 5.12537 11.9818 4.58325 12.7783C3.33325 14.6117 3.33325 17.165 3.33325 22.2733C3.33325 27.3817 3.33325 29.9333 4.58159 31.7683C5.12159 32.5617 5.81492 33.2433 6.62492 33.775C8.49325 35 11.0949 35 16.2966 35ZM19.9999 15.455C16.1649 15.455 13.0549 18.5067 13.0549 22.2717C13.0549 26.0367 16.1666 29.0933 19.9999 29.0933C23.8333 29.0933 26.9449 26.04 26.9449 22.275C26.9449 18.51 23.8333 15.455 19.9999 15.455ZM19.9999 18.1817C17.6999 18.1817 15.8333 20.0133 15.8333 22.2733C15.8333 24.5317 17.6999 26.3633 19.9999 26.3633C22.2999 26.3633 24.1666 24.5317 24.1666 22.2733C24.1666 20.015 22.2999 18.1817 19.9999 18.1817ZM27.8699 16.8183C27.8699 16.065 28.4916 15.455 29.2599 15.455H31.1099C31.8766 15.455 32.4999 16.065 32.4999 16.8183C32.4964 17.1832 32.3482 17.5317 32.0879 17.7873C31.8276 18.0429 31.4764 18.1848 31.1116 18.1817H29.2599C29.0791 18.1834 28.8998 18.1496 28.7321 18.082C28.5644 18.0144 28.4116 17.9145 28.2825 17.7879C28.1535 17.6613 28.0506 17.5105 27.9798 17.3442C27.909 17.1778 27.8717 16.9991 27.8699 16.8183Z" fill="#777777"/>
</svg>
