<svg width="20" height="20" viewBox="0 0 20 20" fill="none" xmlns="http://www.w3.org/2000/svg">
<path d="M5.83333 18.3334C5.59722 18.3334 5.39944 18.2534 5.24 18.0934C5.08056 17.9334 5.00056 17.7356 5 17.5001V10.7084C4.25 10.514 3.64583 10.1181 3.1875 9.52092C2.72917 8.9237 2.5 8.25008 2.5 7.50008V2.50008C2.5 2.26397 2.58 2.0662 2.74 1.90675C2.9 1.74731 3.09778 1.66731 3.33333 1.66675C3.56889 1.6662 3.76694 1.7462 3.9275 1.90675C4.08806 2.06731 4.16778 2.26508 4.16667 2.50008V6.66675H5V2.50008C5 2.26397 5.08 2.0662 5.24 1.90675C5.4 1.74731 5.59778 1.66731 5.83333 1.66675C6.06889 1.6662 6.26694 1.7462 6.4275 1.90675C6.58806 2.06731 6.66778 2.26508 6.66667 2.50008V6.66675H7.5V2.50008C7.5 2.26397 7.58 2.0662 7.74 1.90675C7.9 1.74731 8.09778 1.66731 8.33333 1.66675C8.56889 1.6662 8.76694 1.7462 8.9275 1.90675C9.08806 2.06731 9.16778 2.26508 9.16667 2.50008V7.50008C9.16667 8.25008 8.9375 8.9237 8.47917 9.52092C8.02083 10.1181 7.41667 10.514 6.66667 10.7084V17.5001C6.66667 17.7362 6.58667 17.9342 6.42667 18.0942C6.26667 18.2542 6.06889 18.334 5.83333 18.3334ZM14.1667 18.3334C13.9306 18.3334 13.7328 18.2534 13.5733 18.0934C13.4139 17.9334 13.3339 17.7356 13.3333 17.5001V10.3959C12.5833 10.1459 11.9792 9.62175 11.5208 8.82342C11.0625 8.02508 10.8333 7.11869 10.8333 6.10425C10.8333 4.86814 11.1597 3.81953 11.8125 2.95842C12.4653 2.09731 13.25 1.66675 14.1667 1.66675C15.0833 1.66675 15.8681 2.10064 16.5208 2.96842C17.1736 3.8362 17.5 4.88842 17.5 6.12508C17.5 7.13897 17.2708 8.04175 16.8125 8.83342C16.3542 9.62508 15.75 10.1459 15 10.3959V17.5001C15 17.7362 14.92 17.9342 14.76 18.0942C14.6 18.2542 14.4022 18.334 14.1667 18.3334Z" fill="#FC7E2A"/>
</svg>
